<svg width="180" height="180" style="isolation:isolate" viewBox="0 0 135 135" xml:space="preserve" xmlns="http://www.w3.org/2000/svg">
  <g transform="translate(-7.5 -9.668)">
    <circle style="display:inline;isolation:isolate;fill:#ffcf53;fill-opacity:1;stroke-width:1.5" cx="75" cy="82.031" r="58.594"/>
    <g style="display:inline">
      <g style="display:inline;isolation:isolate">
        <path style="opacity:1;isolation:isolate;fill:#5ed1fe;fill-opacity:1;stroke-width:3" d="M102.263 113.874c0 13.443-10.675 27.06-22.869 26.86-12.676-.209-22.495-13.884-22.495-27.326 0-13.443 9.923-18.756 22.962-18.464 12.482.28 22.402 5.487 22.402 18.93z" transform="translate(-8.852 -7.187)"/>
        <path d="M96.65 100.209c1.4 2.548 2.183 5.671 2.183 9.443 0 13.443-10.675 27.06-22.87 26.86-5.33-.088-10.15-2.563-13.953-6.394 4.084 6.157 10.286 10.499 17.385 10.615 12.193.2 22.867-13.416 22.867-26.859 0-6.2-2.113-10.645-5.612-13.665z" style="display:inline;isolation:isolate;fill:#4eafe2;fill-opacity:1;stroke-width:3" transform="translate(-8.852 -7.187)"/>
        <path style="display:inline;opacity:1;isolation:isolate;fill:#fff;fill-opacity:1;stroke-width:3" d="M89.76 115.442c-.373 7.794-7.782 13.188-14.86 13.072-7.357-.121-14.363-5.633-14.363-13.436 0-7.802 7.345-11.166 14.914-10.996 7.245.162 14.682 3.558 14.309 11.36z" transform="translate(-8.852 -7.187)"/>
        <path style="display:inline;isolation:isolate;fill:none;fill-opacity:1;stroke:#13256f;stroke-width:3;stroke-dasharray:none;stroke-opacity:1" d="M102.263 113.874c0 13.443-10.675 27.06-22.869 26.86-12.676-.209-22.495-13.884-22.495-27.326 0-13.443 9.923-18.756 22.962-18.464 12.482.28 22.402 5.487 22.402 18.93z" transform="translate(-8.852 -7.187)"/>
        <g style="stroke-width:1.06825">
          <path style="opacity:1;isolation:isolate;fill:#ff7a0f;fill-opacity:1;stroke:none;stroke-width:1.60238;stroke-dasharray:none" d="M104.294 145.632c10.213-3.431 25.628-9.9 33.988-14.126-1.8-8.536-4.477-14.278-7.054-20.22l-14.758 4.956-4.94-3.264-18.717 6.501c3.446 8.908 6.988 17.768 11.48 26.153z" transform="translate(-2.916 -.039) scale(.93611)"/>
          <path style="isolation:isolate;fill:#ffe6c3;fill-opacity:1;stroke:none;stroke-width:1.60238;stroke-dasharray:none" d="M105.19 144.137c10.214-3.43 25.131-9.8 33.49-14.026-1.799-8.536-4.675-14.975-7.253-20.917l-14.758 4.955-4.94-3.264-18.218 6.402c3.446 8.908 7.187 18.465 11.68 26.85z" transform="translate(-2.916 -.039) scale(.93611)"/>
          <path style="isolation:isolate;fill:#ff9e50;fill-opacity:1;stroke:none;stroke-width:1.60238;stroke-dasharray:none" d="M106.885 144.735c10.213-3.43 25.13-9.8 33.49-14.026-1.8-8.536-4.477-14.278-7.054-20.22l-14.758 4.956-4.94-3.264-18.219 6.401c3.446 8.908 6.988 17.768 11.48 26.153z" transform="translate(-2.916 -.039) scale(.93611)"/>
          <path style="isolation:isolate;fill:#000;fill-opacity:.0868263;stroke:none;stroke-width:1.60238;stroke-dasharray:none" d="M106.984 144.735c10.214-3.43 25.13-9.8 33.49-14.026-1.8-8.536-4.476-14.278-7.054-20.22 0 0 3.079 11.594-.806 18.608-1.424 2.571-17.404 9.315-20.16 11.064-5.133 3.257-5.47 4.574-5.47 4.574z" transform="translate(-2.916 -.039) scale(.93611)"/>
        </g>
        <g style="isolation:isolate;stroke-width:.901324">
          <path style="display:inline;opacity:1;isolation:isolate;fill:#5ed1fe;fill-opacity:1;stroke-width:2.70397" d="M122.649 126.933c3.83-3.514-7.473-19.855-10.276-21.766-2.804-1.91-11.615-3.377-12.395.877-.78 4.255 18.84 24.402 22.67 20.889z" transform="matrix(1.10962 0 0 1.10934 -13.763 -17.357)"/>
          <path d="M123.293 125.842c-6.682-2.552-20.426-17.342-19.77-20.917a2.72 2.72 0 0 1 .934-1.621c-2.249.11-4.137.874-4.48 2.74-.78 4.255 18.84 24.403 22.672 20.89.31-.285.52-.655.644-1.092z" style="display:inline;fill:#4eafe2;fill-opacity:1;stroke-width:2.70397" transform="matrix(1.10962 0 0 1.10934 -13.763 -17.357)"/>
          <path style="display:inline;isolation:isolate;fill:none;fill-opacity:1;stroke:#13256f;stroke-width:2.02798;stroke-dasharray:none;stroke-opacity:1" d="M122.649 126.933c3.83-3.514-7.473-19.855-10.276-21.766-2.804-1.91-11.615-3.377-12.395.877-.78 4.255 18.84 24.402 22.67 20.889z" transform="matrix(1.10962 0 0 1.10934 -13.763 -17.357)"/>
        </g>
        <g style="display:inline;isolation:isolate;stroke-width:.901338">
          <path style="opacity:1;isolation:isolate;fill:#5ed1fe;fill-opacity:1;stroke-width:2.70401" d="M32.914 87.949c3.69-3.66 19.479 8.403 21.255 11.294 1.776 2.891 2.824 11.762-1.462 12.34-4.287.578-23.484-19.974-19.793-23.634z" transform="matrix(1.10965 0 0 1.10927 -18.116 -18.864)"/>
          <path d="M55.214 109.296c-4.735-1.06-19.083-16.253-19.581-21.977-1.158-.144-2.107.023-2.719.63-3.69 3.66 15.507 24.212 19.793 23.633 1.256-.169 2.05-1.052 2.507-2.286z" style="fill:#4eafe2;fill-opacity:1;stroke-width:2.70401" transform="matrix(1.10965 0 0 1.10927 -18.116 -18.864)"/>
          <path style="display:inline;isolation:isolate;fill:none;fill-opacity:1;stroke:#13256f;stroke-width:2.02801;stroke-dasharray:none;stroke-opacity:1" d="M32.914 87.949c3.69-3.66 19.479 8.403 21.255 11.294 1.776 2.891 2.824 11.762-1.462 12.34-4.287.578-23.484-19.974-19.793-23.634z" transform="matrix(1.10965 0 0 1.10927 -18.116 -18.864)"/>
        </g>
      </g>
      <g style="display:inline;isolation:isolate">
        <path style="display:inline;isolation:isolate;fill:#5ed1fe;fill-opacity:1;stroke:none;stroke-width:3;stroke-dasharray:none;stroke-opacity:1" d="M95.05 26.147c10.118 2.771 19.13 7.141 24.927 14.901 5.797 7.76 7.25 19.01 7.229 28.165-.023 9.156-.858 18.858-6.55 25.013-5.692 6.155-15.71 7.21-23.093 8.02-7.384.81-17.278-.128-24.547-1.431-7.268-1.304-13.12-2.826-18.858-5.764-5.738-2.939-17.068-10.002-19.47-19.472-2.403-9.47 4.162-21.463 8.841-29.799 4.68-8.335 8.455-15.405 17.613-19.495 9.159-4.091 23.789-2.91 33.908-.138Z" transform="translate(-7.005 -8.374)"/>
        <path d="M113.79 34.813c.45.524.889 1.06 1.306 1.618 5.797 7.76 7.251 19.01 7.229 28.165-.022 9.156-.859 18.857-6.55 25.012-5.693 6.155-15.71 7.21-23.094 8.02-7.384.81-17.278-.127-24.547-1.43-7.268-1.304-13.119-2.827-18.856-5.765-2.561-1.311-6.236-3.448-9.734-6.25 4.493 5.112 10.79 8.91 14.614 10.867 5.738 2.938 11.59 4.46 18.859 5.764 7.268 1.304 17.163 2.242 24.546 1.431 7.384-.81 17.401-1.864 23.093-8.02 5.692-6.155 6.527-15.856 6.55-25.012.022-9.155-1.432-20.404-7.23-28.164-1.778-2.382-3.862-4.442-6.185-6.236z" style="display:inline;fill:#4eafe2;fill-opacity:1;stroke-width:2.99999" transform="translate(-7.005 -8.374)"/>
        <path style="fill:none;fill-opacity:.69012;stroke:#13256f;stroke-width:2.99999;stroke-dasharray:none;stroke-opacity:1" d="M95.05 26.147c10.118 2.771 19.13 7.141 24.927 14.901 5.797 7.76 7.25 19.01 7.229 28.165-.023 9.156-.858 18.858-6.55 25.013-5.692 6.155-15.71 7.21-23.093 8.02-7.384.81-17.278-.128-24.547-1.431-7.268-1.304-13.12-2.826-18.858-5.764-5.738-2.939-17.068-10.002-19.47-19.472-2.403-9.47 4.162-21.463 8.841-29.799 4.68-8.335 8.455-15.405 17.613-19.495 9.159-4.091 23.789-2.91 33.908-.138Z" transform="translate(-7.005 -8.374)"/>
        <path style="display:inline;opacity:1;isolation:isolate;fill:#fff;fill-opacity:1;stroke:none;stroke-width:3;stroke-dasharray:none;stroke-opacity:1" d="M90.506 36.183c7.932 2.32 13.996 6.17 18.088 11.981 4.091 5.81 4.954 13.606 5.005 20.337.05 6.731-.86 14.88-4.36 18.947-3.5 4.069-9.915 4.437-15.95 5.196-6.036.758-13.862.358-19.418-.62-5.557-.978-8.954-1.875-13.827-4.613-4.874-2.737-12.095-6.082-14.335-13.088-2.24-7.006 2.032-17.814 5.202-24.17 3.17-6.355 4.793-10.3 11.707-13.528 6.915-3.227 19.956-2.762 27.888-.442z" transform="translate(-7.005 -8.374)"/>
        <path d="M101.81 41.429c.383.473.758.956 1.111 1.459 4.092 5.81 4.953 13.605 5.004 20.336.051 6.731-.86 14.88-4.36 18.948-3.498 4.068-9.914 4.436-15.95 5.194-6.035.758-13.861.359-19.418-.62-5.556-.978-8.953-1.875-13.826-4.612-1.998-1.122-4.388-2.351-6.67-3.888 3.165 4.443 8.485 6.999 12.343 9.166 4.873 2.737 8.27 3.634 13.827 4.612 5.556.979 13.382 1.378 19.418.62 6.035-.758 12.451-1.127 15.95-5.196 3.5-4.068 4.41-12.215 4.36-18.946-.051-6.73-.914-14.528-5.006-20.338-1.857-2.637-4.124-4.866-6.783-6.735z" style="display:inline;isolation:isolate;fill:#d0d3e2;fill-opacity:1;stroke-width:3" transform="translate(-7.005 -8.374)"/>
        <path style="isolation:isolate;fill:none;fill-opacity:.69012;stroke:#13256f;stroke-width:3;stroke-dasharray:none;stroke-opacity:1" d="M90.506 36.183c7.932 2.32 13.996 6.17 18.088 11.981 4.091 5.81 4.954 13.606 5.005 20.337.05 6.731-.86 14.88-4.36 18.947-3.5 4.069-9.915 4.437-15.95 5.196-6.036.758-13.862.358-19.418-.62-5.557-.978-9.25-1.875-14.124-4.613-4.874-2.737-11.798-6.082-14.038-13.088-2.24-7.006 2.032-17.814 5.202-24.17 3.17-6.355 4.793-10.3 11.707-13.528 6.915-3.227 19.956-2.762 27.888-.442z" transform="translate(-7.005 -8.374)"/>
      </g>
      <g transform="translate(-7.005 -8.374)" style="display:inline;isolation:isolate">
        <path style="opacity:1;isolation:isolate;fill:#112876;fill-opacity:1;stroke:none;stroke-width:3;stroke-dasharray:none;stroke-opacity:1;paint-order:normal" d="m67.615 67.942 15.762 3.43c-.225 4.867-3.362 10.866-10.384 9.67-7.022-1.195-7.74-8.23-5.378-13.1z"/>
        <path style="opacity:1;fill:#fd5a9b;fill-opacity:1;stroke:none;stroke-width:3" d="M77.482 77.432c-.858.763-2.267 1.033-4 .85-1.731-.184-2.508-.876-3.478-2.166a6.281 6.281 0 0 1 4.169-1.082c1.388.13 2.652 1.013 3.309 2.398z"/>
        <path style="isolation:isolate;fill:#112876;fill-opacity:1;stroke:none;stroke-width:3;stroke-dasharray:none;stroke-opacity:1;paint-order:normal" d="M58.974 52.189c3.193 1.699 5.683 4.105 6.421 6.329-3.625.15-5.091 1.256-6.437 2.312 3.326-.024 6.306.149 7.729.665s3.01.195 3.207-.909c.198-1.104-.741-2.596-1.268-3.23-3.62-4.352-6.43-5.172-9.652-5.167z"/>
        <ellipse style="isolation:isolate;fill:#112876;fill-opacity:1;stroke:none;stroke-width:3.00022;stroke-dasharray:none;stroke-opacity:1;paint-order:normal" cx="105.253" cy="41.598" rx="4.714" ry="8.34" transform="matrix(.97559 .2196 -.23684 .97155 0 0)"/>
        <ellipse style="isolation:isolate;fill:#fff;fill-opacity:1;stroke:none;stroke-width:3.00022;stroke-dasharray:none;stroke-opacity:1;paint-order:normal" cx="105.741" cy="39.237" rx="1.793" ry="3.172" transform="matrix(.97559 .2196 -.23684 .97155 0 0)"/>
      </g>
    </g>
  </g>
</svg>
