<svg height="800" width="800" viewBox="0 0 512 512" xml:space="preserve" xmlns="http://www.w3.org/2000/svg">
  <path style="fill:#fafafa;fill-opacity:1" d="M386.927 204.476c-14.259-36.198-43.204-65.143-79.42-79.411l-10.948-4.318 29.346-97.818 12.732 4.617c67.977 24.678 121.122 77.815 145.801 145.792l4.625 12.732-97.826 29.346-4.31-10.94z"/>
  <path style="fill:#f48073;fill-opacity:1" d="m391.339 296.602 2.423-11.52A142.03 142.03 0 0 0 396.8 256a142.03 142.03 0 0 0-3.038-29.082l-2.423-11.52 97.749-29.329 3.166 13.158c4.608 19.2 6.946 38.289 6.946 56.772 0 18.483-2.338 37.572-6.946 56.764l-3.166 13.158-97.749-29.319zM256 499.2c-18.492 0-37.589-2.338-56.781-6.955l-13.158-3.157 29.329-97.741 11.511 2.415c9.617 2.014 19.413 3.038 29.099 3.038 9.685 0 19.482-1.024 29.107-3.038l11.511-2.415 29.329 97.741-13.158 3.157c-19.2 4.617-38.297 6.955-56.789 6.955z"/>
  <path style="fill:#fafafa;fill-opacity:1" d="m296.559 391.253 10.948-4.318c36.207-14.268 65.161-43.213 79.42-79.411l4.309-10.948 97.826 29.346-4.625 12.732c-24.687 67.985-77.824 121.114-145.801 145.792l-12.732 4.617-29.345-97.81z"/>
  <path style="fill:#f48073;fill-opacity:1" d="M285.107 118.238c-9.626-2.014-19.422-3.038-29.107-3.038-9.685 0-19.482 1.024-29.107 3.038l-11.511 2.415-29.321-97.732 13.158-3.157C218.411 15.138 237.508 12.8 256 12.8c18.492 0 37.589 2.338 56.781 6.955l13.158 3.157-29.329 97.749-11.503-2.423z"/>
  <path style="fill:#fafafa;fill-opacity:1" d="m22.929 186.078 4.625-12.732C52.233 105.37 105.37 52.224 173.355 27.554l12.732-4.617 29.346 97.818-10.948 4.318c-36.207 14.268-65.152 43.204-79.42 79.411l-4.309 10.948-97.827-29.354z"/>
  <path style="fill:#f48073;fill-opacity:1" d="M19.746 312.764C15.138 293.572 12.8 274.483 12.8 256c0-18.483 2.338-37.572 6.946-56.764l3.166-13.158 97.749 29.329-2.423 11.52A141.878 141.878 0 0 0 115.2 256a142.03 142.03 0 0 0 3.038 29.082l2.423 11.52-97.749 29.321-3.166-13.159z"/>
  <path style="fill:#fafafa;fill-opacity:1" d="M173.355 484.446c-67.977-24.67-121.122-77.815-145.801-145.792l-4.625-12.732 97.826-29.338 4.309 10.948c14.259 36.19 43.204 65.143 79.42 79.411l10.948 4.318-29.346 97.818-12.731-4.633z"/>
  <path style="fill:#324a5e;fill-opacity:1" d="M256 0C114.62 0 0 114.611 0 256c0 141.38 114.62 256 256 256s256-114.62 256-256C512 114.611 397.38 0 256 0zm0 25.6c18.551 0 36.497 2.441 53.786 6.596l-22.059 73.523A154.24 154.24 0 0 0 256 102.4c-10.88 0-21.487 1.169-31.735 3.319l-22.059-73.523C219.503 28.041 237.449 25.6 256 25.6zM384 256c0 70.579-57.421 128-128 128s-128-57.421-128-128 57.421-128 128-128 128 57.421 128 128zM177.724 39.586 199.8 113.16c-39.569 15.59-71.04 47.061-86.63 86.622l-73.574-22.076c23.252-64.076 74.042-114.867 138.128-138.12zM25.6 256c0-18.543 2.441-36.489 6.596-53.777l73.523 22.05c-2.15 10.249-3.319 20.847-3.319 31.727 0 10.88 1.169 21.478 3.319 31.718l-73.523 22.059C28.041 292.489 25.6 274.543 25.6 256zm152.124 216.414c-64.085-23.253-114.876-74.052-138.138-138.129l73.574-22.076c15.59 39.569 47.07 71.04 86.63 86.622l-22.066 73.583zM256 486.4c-18.551 0-36.497-2.441-53.786-6.596l22.059-73.523A154.24 154.24 0 0 0 256 409.6c10.88 0 21.487-1.169 31.736-3.319l22.059 73.523C292.497 483.96 274.551 486.4 256 486.4zm78.276-13.986L312.2 398.84c39.569-15.59 71.049-47.061 86.63-86.622l73.574 22.076c-23.252 64.068-74.042 114.867-138.128 138.12zM486.4 256c0 18.543-2.441 36.489-6.596 53.777l-73.523-22.059c2.15-10.24 3.319-20.838 3.319-31.718 0-10.88-1.169-21.478-3.319-31.718l73.523-22.059c4.156 17.288 6.596 35.234 6.596 53.777zm-87.561-56.218c-15.59-39.569-47.061-71.04-86.63-86.622l22.076-73.574c64.077 23.253 114.876 74.052 138.138 138.129l-73.584 22.067z"/>
</svg>
